<?xml version="1.0" encoding="UTF-8"?>
<svg version="1.1" xmlns="http://www.w3.org/2000/svg" width="500" height="500">
<path d="M0 0 C165 0 330 0 500 0 C500 165 500 330 500 500 C335 500 170 500 0 500 C0 335 0 170 0 0 Z " fill="#FEFEFE" transform="translate(0,0)"/>
<path d="M0 0 C0.64807617 0.21430664 1.29615234 0.42861328 1.96386719 0.64941406 C16.72548568 5.60845167 29.55981338 14.09671517 37 28.125 C40.23042728 36.0572478 40.78015788 44.71080314 37.703125 52.7890625 C31.32840083 67.29348009 19.30135264 75.83237817 5.01171875 81.87109375 C-5.18131579 85.69182914 -13.89526529 87.12076133 -24.765625 87.16918945 C-38.82927528 87.2359135 -46.1047257 88.20317777 -57 97 C-59.5666893 98.49478969 -62.21418336 99.80696757 -64.875 101.125 C-69.86579115 103.67703759 -73.9738212 106.44887301 -78.02734375 110.32421875 C-82.36468761 114.00881383 -88.20778367 118 -94 118 C-93.7834375 119.05058594 -93.566875 120.10117187 -93.34375 121.18359375 C-91.86853877 128.54650184 -90.59566175 135.45235268 -91 143 C-96.21061872 142.4336284 -100.15536992 140.7274506 -104.75 138.375 C-105.46534912 138.02179688 -106.18069824 137.66859375 -106.91772461 137.3046875 C-110.97796702 135.24537741 -114.17775156 133.07704404 -117.5625 130 C-123.42867356 125.59292545 -130.19535579 126.62819924 -137.18115234 126.84472656 C-145.92404626 127.11209335 -153.52254965 126.18559267 -162 124 C-163.051875 123.73316406 -164.10375 123.46632813 -165.1875 123.19140625 C-179.91823016 118.87576265 -192.74606229 109.80331669 -200.58984375 96.6171875 C-204.6805822 89.02495824 -205.56392394 79.8202851 -203.3125 71.44140625 C-197.24644105 56.85758953 -185.16810695 47.97473665 -171.11816406 41.84130859 C-165.57429718 39.63935317 -159.8130865 38.29260843 -154 37 C-153.14184692 36.7373938 -153.14184692 36.7373938 -152.26635742 36.46948242 C-149.06385814 35.80607554 -145.88565349 35.81716102 -142.62890625 35.796875 C-141.55164528 35.78832489 -141.55164528 35.78832489 -140.45262146 35.77960205 C-138.93042462 35.77016858 -137.40820751 35.76362464 -135.88598633 35.75976562 C-133.60133994 35.75016324 -131.31763462 35.7191698 -129.03320312 35.6875 C-119.89696313 35.62336772 -111.83073477 36.43183369 -103 39 C-102.98517578 38.33508545 -102.97035156 37.6701709 -102.95507812 36.98510742 C-102.65437058 28.12248592 -98.74921014 21.72128589 -92.8125 15.3125 C-69.65218239 -6.27332234 -29.16038528 -10.0531521 0 0 Z " fill="#089FE3" transform="translate(342,150)"/>
<path d="M0 0 C8.58057748 7.331352 14.69449801 14.76571294 15.98046875 26.29296875 C16.50863452 36.15206305 13.78817026 43.27100795 7.60546875 50.92578125 C-0.47211115 59.50551976 -10.38660879 64.40473329 -21.34375 68.38671875 C-22.86742187 68.96292969 -22.86742187 68.96292969 -24.421875 69.55078125 C-34.50894326 72.81148471 -44.3734874 72.84200447 -54.91381836 72.62011719 C-63.94912819 72.63224756 -68.44946457 74.73477458 -75.34375 80.38671875 C-77.46739678 81.6836214 -79.59930431 82.7344813 -81.84375 83.82421875 C-83.34421875 84.56478516 -83.34421875 84.56478516 -84.875 85.3203125 C-87.34375 86.38671875 -87.34375 86.38671875 -89.34375 86.38671875 C-88.10958013 79.56248537 -86.4521505 72.99304031 -84.34375 66.38671875 C-85.21257812 66.12117188 -86.08140625 65.855625 -86.9765625 65.58203125 C-100.30185821 60.85170586 -109.15937602 52.8081829 -115.21484375 40.21875 C-118.3007123 32.47738426 -118.31618811 25.22905329 -115.40625 17.44921875 C-108.22923242 1.64771786 -93.90234625 -5.72930303 -78.34375 -11.61328125 C-54.31298176 -19.71809347 -19.9580686 -16.1141632 0 0 Z " fill="#12DDDB" transform="translate(363.34375,162.61328125)"/>
<path d="M0 0 C0.64807617 0.21430664 1.29615234 0.42861328 1.96386719 0.64941406 C16.72548568 5.60845167 29.55981338 14.09671517 37 28.125 C40.23042728 36.0572478 40.78015788 44.71080314 37.703125 52.7890625 C31.32840083 67.29348009 19.30135264 75.83237817 5.01171875 81.87109375 C-5.18131579 85.69182914 -13.89526529 87.12076133 -24.765625 87.16918945 C-38.82927528 87.2359135 -46.1047257 88.20317777 -57 97 C-59.5666893 98.49478969 -62.21418336 99.80696757 -64.875 101.125 C-69.86579115 103.67703759 -73.9738212 106.44887301 -78.02734375 110.32421875 C-82.36468761 114.00881383 -88.20778367 118 -94 118 C-93.7834375 119.05058594 -93.566875 120.10117187 -93.34375 121.18359375 C-91.86853877 128.54650184 -90.59566175 135.45235268 -91 143 C-96.21061872 142.4336284 -100.15536992 140.7274506 -104.75 138.375 C-105.46534912 138.02179688 -106.18069824 137.66859375 -106.91772461 137.3046875 C-110.97796702 135.24537741 -114.17775156 133.07704404 -117.5625 130 C-123.42867356 125.59292545 -130.19535579 126.62819924 -137.18115234 126.84472656 C-145.92404626 127.11209335 -153.52254965 126.18559267 -162 124 C-163.051875 123.73316406 -164.10375 123.46632813 -165.1875 123.19140625 C-179.91823016 118.87576265 -192.74606229 109.80331669 -200.58984375 96.6171875 C-204.6805822 89.02495824 -205.56392394 79.8202851 -203.3125 71.44140625 C-197.24644105 56.85758953 -185.16810695 47.97473665 -171.11816406 41.84130859 C-165.57429718 39.63935317 -159.8130865 38.29260843 -154 37 C-153.14184692 36.7373938 -153.14184692 36.7373938 -152.26635742 36.46948242 C-149.06385814 35.80607554 -145.88565349 35.81716102 -142.62890625 35.796875 C-141.55164528 35.78832489 -141.55164528 35.78832489 -140.45262146 35.77960205 C-138.93042462 35.77016858 -137.40820751 35.76362464 -135.88598633 35.75976562 C-133.60133994 35.75016324 -131.31763462 35.7191698 -129.03320312 35.6875 C-119.89696313 35.62336772 -111.83073477 36.43183369 -103 39 C-102.98517578 38.33508545 -102.97035156 37.6701709 -102.95507812 36.98510742 C-102.65437058 28.12248592 -98.74921014 21.72128589 -92.8125 15.3125 C-69.65218239 -6.27332234 -29.16038528 -10.0531521 0 0 Z M-86.54296875 18.19921875 C-92.50448835 24.99478242 -96.35787268 33.40675576 -96.2109375 42.47265625 C-95.2549601 53.92668172 -89.2363486 62.77205358 -80.6484375 70.0703125 C-72.43609356 76.17800036 -72.43609356 76.17800036 -63 79 C-63.3609375 80.19238281 -63.721875 81.38476562 -64.09375 82.61328125 C-64.56271467 84.17962324 -65.03145289 85.74603305 -65.5 87.3125 C-65.73847656 88.09818359 -65.97695313 88.88386719 -66.22265625 89.69335938 C-66.44824219 90.45068359 -66.67382812 91.20800781 -66.90625 91.98828125 C-67.11572266 92.68477783 -67.32519531 93.38127441 -67.54101562 94.09887695 C-68.11734264 96.16007833 -68.11734264 96.16007833 -68 99 C-59.65274774 96.84122786 -50.19882982 92.19882982 -44 86 C-42.1005625 85.91436962 -40.19823979 85.8918264 -38.296875 85.89453125 C-14.24620898 85.68429816 8.64633903 82.67153712 26.83984375 65.3359375 C34.15664756 57.42373374 37.53215934 50.21185976 37.30078125 39.41015625 C36.28812795 27.92903505 30.40448292 20.76016874 22.05859375 13.25390625 C-7.68744509 -10.65470534 -59.19451704 -7.58422857 -86.54296875 18.19921875 Z M-192 57 C-200.24678562 67.16791181 -203.1880247 74.79807548 -202 88 C-199.32724597 98.22024693 -191.25630587 107.6516441 -182.30273438 113.01708984 C-168.05627564 121.02425058 -153.69933955 125.38175371 -137.27075195 124.73071289 C-120.53261873 124.16822848 -120.53261873 124.16822848 -114.23828125 129.9765625 C-111.43454685 132.51117754 -108.32415317 134.19619091 -105 135.9375 C-103.906875 136.52402344 -102.81375 137.11054688 -101.6875 137.71484375 C-99.19577677 139.14380303 -99.19577677 139.14380303 -97 139 C-98.25397873 131.98305518 -99.57584088 124.98443993 -101 118 C-99.7625 117.690625 -98.525 117.38125 -97.25 117.0625 C-88.44064815 114.10289126 -79.77991171 107.36405896 -74.26953125 99.8828125 C-71.41257426 93.39532248 -71.36995082 85.99886551 -71 79 C-71.88300781 78.53851563 -72.76601563 78.07703125 -73.67578125 77.6015625 C-84.81838928 71.61465246 -96.39672706 64.44186507 -101 52 C-101.29877745 50.37990502 -101.57031034 48.75451522 -101.8125 47.125 C-102.3745424 43.99720726 -102.3745424 43.99720726 -104.54296875 41.83984375 C-106.67760657 40.99195368 -108.76059254 40.51000904 -111 40 C-111.71824951 39.82428467 -112.43649902 39.64856934 -113.17651367 39.4675293 C-120.08790723 37.91270377 -126.74603673 37.68972177 -133.8125 37.75 C-135.54161621 37.76123901 -135.54161621 37.76123901 -137.30566406 37.77270508 C-156.98650855 38.02212954 -177.54069784 42.54069784 -192 57 Z " fill="#0E0F62" transform="translate(342,150)"/>
<path d="M0 0 C0.9796875 0.04833984 1.959375 0.09667969 2.96875 0.14648438 C4.49242187 0.2305957 4.49242187 0.2305957 6.046875 0.31640625 C7.59375 0.3947168 7.59375 0.3947168 9.171875 0.47460938 C11.71386539 0.60406259 14.25544093 0.73901953 16.796875 0.87890625 C16.796875 1.20890625 16.796875 1.53890625 16.796875 1.87890625 C16.03246094 1.91330811 15.26804687 1.94770996 14.48046875 1.9831543 C-4.85329832 2.92105139 -21.50515274 4.27528393 -38.203125 14.87890625 C-38.91855469 15.3171875 -39.63398438 15.75546875 -40.37109375 16.20703125 C-47.88431672 21.26428772 -53.92687601 29.07517855 -56.203125 37.87890625 C-57.05469666 46.32530886 -56.73362363 53.58763502 -52.203125 60.87890625 C-51.790625 61.55308594 -51.378125 62.22726563 -50.953125 62.921875 C-41.39457976 76.96098833 -25.2009504 83.28077943 -9.203125 86.87890625 C-3.51661785 87.8518368 1.7698716 87.83773094 7.52612305 87.60961914 C24.25658853 87.0473924 24.25658853 87.0473924 30.5625 92.85546875 C33.34925752 95.37914077 36.43278983 97.0736645 39.734375 98.81640625 C40.81589844 99.40292969 41.89742188 99.98945313 43.01171875 100.59375 C45.73964599 102.08839496 45.73964599 102.08839496 48.796875 101.87890625 C48.796875 102.53890625 48.796875 103.19890625 48.796875 103.87890625 C45.796875 104.87890625 45.796875 104.87890625 42.79296875 103.69140625 C41.61863281 103.09328125 40.44429688 102.49515625 39.234375 101.87890625 C38.59943115 101.5636499 37.9644873 101.24839355 37.31030273 100.92358398 C33.4922601 98.97031303 30.54649237 96.83824713 27.359375 93.94140625 C21.40372152 89.50173729 14.69369061 90.50390735 7.61621094 90.72387695 C-1.12690932 90.99050413 -8.72539921 90.06456993 -17.203125 87.87890625 C-18.255 87.61207031 -19.306875 87.34523438 -20.390625 87.0703125 C-35.12135516 82.7546689 -47.94918729 73.68222294 -55.79296875 60.49609375 C-59.8837072 52.90386449 -60.76704894 43.69919135 -58.515625 35.3203125 C-52.44956605 20.73649578 -40.37123195 11.8536429 -26.32128906 5.72021484 C-20.77742218 3.51825942 -15.0162115 2.17151468 -9.203125 0.87890625 C-8.58630859 0.69714844 -7.96949219 0.51539063 -7.33398438 0.328125 C-4.79981254 -0.20611837 -2.58579558 -0.13530326 0 0 Z " fill="#1C2875" transform="translate(197.203125,186.12109375)"/>
<path d="M0 0 C1.09755615 0.26731934 1.09755615 0.26731934 2.21728516 0.54003906 C19.40927656 4.92427506 34.66568523 12.52342437 44.5390625 27.86328125 C48.70286911 35.71403394 49.97856839 44.66421455 47.35742188 53.28222656 C41.72285089 68.07489453 30.53832811 76.27185192 16.75 83.0625 C3.25348843 88.76604673 -8.92452575 89.93291945 -23.50732422 89.52050781 C-33.375845 89.5071304 -38.5659833 92.29161978 -46.0625 98.375 C-46.3925 97.385 -46.7225 96.395 -47.0625 95.375 C-45.88880859 94.63443359 -45.88880859 94.63443359 -44.69140625 93.87890625 C-43.67949219 93.23824219 -42.66757812 92.59757812 -41.625 91.9375 C-40.61566406 91.29941406 -39.60632813 90.66132813 -38.56640625 90.00390625 C-36.21696165 88.59850458 -36.21696165 88.59850458 -35.0625 87.375 C-33.1630625 87.28936962 -31.26073979 87.2668264 -29.359375 87.26953125 C-5.24890601 87.0587754 17.61170819 84.01824641 35.84375 66.64453125 C42.7175022 59.19369164 45.45472052 51.88945267 45.23828125 41.78515625 C44.21539496 30.18801685 38.23563698 22.74201706 29.5859375 15.37109375 C14.46211167 3.96664528 -5.58943522 0.87225612 -24.0625 0.375 C-24.0625 0.045 -24.0625 -0.285 -24.0625 -0.625 C-15.69342402 -1.82058228 -8.22378393 -2.01485607 0 0 Z " fill="#182A72" transform="translate(333.0625,147.625)"/>
<path d="M0 0 C1.08410156 0.09023438 2.16820312 0.18046875 3.28515625 0.2734375 C5.9375 0.625 5.9375 0.625 6.9375 1.625 C7.02498207 3.55167507 7.04447334 5.48151861 7.03515625 7.41015625 C7.03193359 8.57998047 7.02871094 9.74980469 7.02539062 10.95507812 C7.01701172 12.18677734 7.00863281 13.41847656 7 14.6875 C6.99548828 15.92306641 6.99097656 17.15863281 6.98632812 18.43164062 C6.97449608 21.49614117 6.95801173 24.56054721 6.9375 27.625 C5.2875 27.295 3.6375 26.965 1.9375 26.625 C1.9375 24.315 1.9375 22.005 1.9375 19.625 C1.2775 19.955 0.6175 20.285 -0.0625 20.625 C-7.27976041 21.20703713 -7.27976041 21.20703713 -10.5 18.8125 C-13.32899783 14.85190303 -13.54667261 11.38603066 -13.0625 6.625 C-9.55202144 0.74363853 -6.61921845 -0.58381665 0 0 Z " fill="#1B1767" transform="translate(315.0625,308.375)"/>
<path d="M0 0 C0.66 0.33 1.32 0.66 2 1 C2 0.34 2 -0.32 2 -1 C3.32 -0.67 4.64 -0.34 6 0 C6 6.27 6 12.54 6 19 C4.68 19.33 3.36 19.66 2 20 C2 19.34 2 18.68 2 18 C1.01 18.66 0.02 19.32 -1 20 C-8.09170306 20.67540029 -8.09170306 20.67540029 -11.4375 18.1875 C-14.26649783 14.22690303 -14.48417261 10.76103066 -14 6 C-10.15933731 -0.43454308 -7.14193616 -1.27534574 0 0 Z " fill="#1B1767" transform="translate(237,309)"/>
<path d="M0 0 C2.97361628 1.78152067 5.42653612 3.85307225 7 7 C7.5811138 14.08958838 7.5811138 14.08958838 5.125 17.9375 C1.63841797 21.3215355 -1.03592714 21.38966392 -5.73828125 21.359375 C-9.32520929 20.78943134 -10.86838894 18.79773951 -13 16 C-14.43304064 13.13391871 -14.30644155 11.18699217 -14 8 C-10.41929156 1.57941934 -7.48964493 -0.88860194 0 0 Z " fill="#1D1969" transform="translate(276,308)"/>
<path d="M0 0 C1.32 0 2.64 0 4 0 C4.33 2.97 4.66 5.94 5 9 C5.99 8.34 6.98 7.68 8 7 C11.5625 7.1875 11.5625 7.1875 15 8 C17.52775351 11.79163027 17.22443035 14.80874031 17.125 19.1875 C17.11597656 19.93708984 17.10695312 20.68667969 17.09765625 21.45898438 C17.07412578 23.30612654 17.03825561 25.15310412 17 27 C15.0625 27.5625 15.0625 27.5625 13 28 C12 27 12 27 11.90234375 23.62109375 C11.90901631 22.22652923 11.92097468 20.83198257 11.9375 19.4375 C11.94201172 18.72658203 11.94652344 18.01566406 11.95117188 17.28320312 C11.96299136 15.52209987 11.98092737 13.76103964 12 12 C9.69 12.66 7.38 13.32 5 14 C4.67 18.29 4.34 22.58 4 27 C2.68 27 1.36 27 0 27 C0 18.09 0 9.18 0 0 Z " fill="#25216E" transform="translate(202,301)"/>
<path d="M0 0 C0.7734375 0.495 0.7734375 0.495 1.5625 1 C1.2325 2.32 0.9025 3.64 0.5625 5 C-0.45070312 4.93039062 -0.45070312 4.93039062 -1.484375 4.859375 C-7.01119996 4.57565337 -7.01119996 4.57565337 -12.0625 6.5 C-14.10061822 10.2056695 -13.771909 12.7864466 -13.4375 17 C-13.1075 17.99 -12.7775 18.98 -12.4375 20 C-9.28819107 21.04976964 -7.04935544 21.10131595 -3.75 21.0625 C-2.75613281 21.05347656 -1.76226562 21.04445313 -0.73828125 21.03515625 C0.02097656 21.02355469 0.78023437 21.01195312 1.5625 21 C1.5625 22.32 1.5625 23.64 1.5625 25 C-2.79436158 26.45228719 -6.88865105 26.63669736 -11.4375 26 C-15.35055703 24.00760843 -17.77535239 21.02808745 -19.4375 17 C-20.16070767 12.37483466 -19.8496396 8.85598225 -17.8125 4.625 C-12.95987485 -0.7384278 -6.93420432 -2.84480177 0 0 Z " fill="#181465" transform="translate(196.4375,303)"/>
<path d="M0 0 C2.875 1.5625 2.875 1.5625 5 4 C5.63734462 7.96569988 5.61999672 10.03280512 3.4375 13.4375 C0.05782196 15.60396028 -2.05983987 15.56288002 -6 15 C-8.4375 13.4375 -8.4375 13.4375 -10 11 C-10.56783945 7.02512383 -10.62340519 4.93510779 -8.375 1.5625 C-5.26456309 -0.48384007 -3.66322334 -0.59807728 0 0 Z " fill="#090A5F" transform="translate(233,224)"/>
<path d="M0 0 C4.99268902 1.47931526 4.99268902 1.47931526 6.375 4 C6.90276637 7.56056467 7.00403915 10.74192169 5.375 14 C2.1120473 15.63147635 -1.11059179 15.6293407 -4.625 15 C-7.125 13.375 -7.125 13.375 -8.625 11 C-9.1875 8.0625 -9.1875 8.0625 -8.625 5 C-5.91953265 1.14675862 -4.77773264 0 0 0 Z " fill="#090A5F" transform="translate(207.625,224)"/>
<path d="M0 0 C2.83300234 0.41314618 4.63288192 0.85942128 7 2.4375 C8.59839645 5.63429291 8.49671024 8.96762416 8 12.4375 C5.72045596 15.35531637 4.17436907 15.41570387 0.5 15.875 C-3 15.4375 -3 15.4375 -5.4375 13.8125 C-7.48384007 10.70206309 -7.59807728 9.10072334 -7 5.4375 C-4.99557018 1.89120109 -4.08993498 0.59644885 0 0 Z " fill="#09095F" transform="translate(182,223.5625)"/>
<path d="M0 0 C2.65515646 0.53391733 3.56129647 1.26686443 5.15625 3.43359375 C5.54298867 6.9786982 5.50297087 9.53211948 4.21875 12.87109375 C1.29103452 15.08906003 -1.1449158 14.99207347 -4.74609375 14.81640625 C-6.84375 14.43359375 -6.84375 14.43359375 -8.90625 12.80859375 C-10.44139857 8.9195507 -10.44139857 5.9476368 -8.90625 2.05859375 C-6.00088977 -0.23047795 -3.61097676 -0.00601829 0 0 Z " fill="#0A0B5F" transform="translate(317.84375,184.56640625)"/>
<path d="M0 0 C2.09765625 0.34765625 2.09765625 0.34765625 4.16015625 1.97265625 C5.69530482 5.8616993 5.69530482 8.8336132 4.16015625 12.72265625 C1.23993847 15.02343389 -1.16458424 14.91004738 -4.8046875 14.7265625 C-6.90234375 14.34765625 -6.90234375 14.34765625 -8.96484375 12.78515625 C-10.24906462 9.44618198 -10.28908242 6.8927607 -9.90234375 3.34765625 C-7.14692689 -0.39555156 -4.35949691 -0.1630381 0 0 Z " fill="#0A0B5F" transform="translate(293.90234375,184.65234375)"/>
<path d="M0 0 C2.5 1.625 2.5 1.625 4 4 C4.60024477 7.60146865 4.45562482 9.27859404 2.5 12.375 C-1.24099229 14.80664499 -3.57426418 14.49174842 -8 14 C-10 13 -10 13 -11 11 C-11.51981506 7.43555389 -11.63102777 4.26205554 -10 1 C-6.7370473 -0.63147635 -3.51440821 -0.6293407 0 0 Z " fill="#0A0A5E" transform="translate(343,185)"/>
<path d="M0 0 C0.99 0.33 1.98 0.66 3 1 C3 2.32 3 3.64 3 5 C4.65 5.33 6.3 5.66 8 6 C7.67 6.99 7.34 7.98 7 9 C5.68 9 4.36 9 3 9 C3 12.96 3 16.92 3 21 C4.65 21 6.3 21 8 21 C8 21.99 8 22.98 8 24 C4.625 24.625 4.625 24.625 1 25 C-1 23 -1 23 -1.1953125 19.7421875 C-1.17210937 18.46601563 -1.14890625 17.18984375 -1.125 15.875 C-1.10695312 14.59367187 -1.08890625 13.31234375 -1.0703125 11.9921875 C-1.04710937 11.00476563 -1.02390625 10.01734375 -1 9 C-2.32 9 -3.64 9 -5 9 C-4.67 7.68 -4.34 6.36 -4 5 C-3.01 5 -2.02 5 -1 5 C-0.67 3.35 -0.34 1.7 0 0 Z " fill="#110D60" transform="translate(251,304)"/>
<path d="M0 0 C1.32 0 2.64 0 4 0 C4.07347656 0.95712891 4.07347656 0.95712891 4.1484375 1.93359375 C4.22320312 2.75988281 4.29796875 3.58617187 4.375 4.4375 C4.44460937 5.26121094 4.51421875 6.08492188 4.5859375 6.93359375 C4.72257813 7.61550781 4.85921875 8.29742187 5 9 C5.66 9.33 6.32 9.66 7 10 C6.68289062 10.52078125 6.36578125 11.0415625 6.0390625 11.578125 C4.71079489 14.67408709 4.57635753 17.39404121 4.375 20.75 C4.26285156 22.50570313 4.26285156 22.50570313 4.1484375 24.296875 C4.07496094 25.63492187 4.07496094 25.63492187 4 27 C2.68 27 1.36 27 0 27 C0 18.09 0 9.18 0 0 Z " fill="#0E0A5F" transform="translate(202,301)"/>
<path d="M0 0 C0.763125 0.20625 1.52625 0.4125 2.3125 0.625 C1.9825 1.945 1.6525 3.265 1.3125 4.625 C-0.9975 5.285 -3.3075 5.945 -5.6875 6.625 C-6.0175 10.915 -6.3475 15.205 -6.6875 19.625 C-8.0075 19.625 -9.3275 19.625 -10.6875 19.625 C-10.6875 13.355 -10.6875 7.085 -10.6875 0.625 C-8.2125 1.12 -8.2125 1.12 -5.6875 1.625 C-2.6875 -0.375 -2.6875 -0.375 0 0 Z " fill="#0F0B5F" transform="translate(297.6875,308.375)"/>
<path d="M0 0 C3.5 -0.3125 3.5 -0.3125 7 0 C9 2 9 2 9.3125 5.4375 C9 9 9 9 7.8125 10.9375 C5.33950907 12.38718434 3.82115488 12.42317323 1 12 C-0.8125 10.875 -0.8125 10.875 -2 9 C-2.42478586 4.92205575 -2.31282587 3.46923881 0 0 Z " fill="#F7F7FA" transform="translate(269,313)"/>
<path d="M0 0 C3 0.25 3 0.25 5 2.25 C5.265625 4.125 5.265625 4.125 5.25 6.25 C5.25515625 6.95125 5.2603125 7.6525 5.265625 8.375 C5 10.25 5 10.25 3 12.25 C0 12.5 0 12.5 -3 12.25 C-5 10.25 -5 10.25 -5.265625 8.375 C-5.26046875 7.67375 -5.2553125 6.9725 -5.25 6.25 C-5.25515625 5.54875 -5.2603125 4.8475 -5.265625 4.125 C-4.77431879 0.65695617 -3.28862917 0.27405243 0 0 Z " fill="#F8F8FA" transform="translate(312,312.75)"/>
<path d="M0 0 C3 0.25 3 0.25 5 2.25 C5.265625 4.125 5.265625 4.125 5.25 6.25 C5.25515625 6.95125 5.2603125 7.6525 5.265625 8.375 C5 10.25 5 10.25 3 12.25 C0 12.5 0 12.5 -3 12.25 C-5 10.25 -5 10.25 -5.265625 8.375 C-5.26046875 7.67375 -5.2553125 6.9725 -5.25 6.25 C-5.25515625 5.54875 -5.2603125 4.8475 -5.265625 4.125 C-4.77431879 0.65695617 -3.28862917 0.27405243 0 0 Z " fill="#F8F8FA" transform="translate(233,312.75)"/>
<path d="M0 0 C1.38963243 2.70612632 2.59632763 5.4366586 3.75 8.25 C9.41375748 20.87976577 19.54080295 28.48614258 32 34 C29.3394874 35.0356774 28.23491735 35.08841771 25.51953125 34.06640625 C14.17831981 27.76573323 4.25356062 19.76068185 0 7 C-0.03954234 4.66700175 -0.04401732 2.33291811 0 0 Z " fill="#161D6D" transform="translate(139,234)"/>
<path d="M0 0 C1.20970459 0.00523682 2.41940918 0.01047363 3.66577148 0.01586914 C4.97094727 0.0190918 6.27612305 0.02231445 7.62084961 0.02563477 C9.00952213 0.03399138 10.39819401 0.04245634 11.78686523 0.05102539 C13.17944179 0.05603873 14.57202005 0.06060193 15.96459961 0.06469727 C19.38456394 0.07653105 22.80444367 0.09301659 26.22436523 0.11352539 C23.00945515 2.01827521 20.71761633 2.32603131 17.00561523 2.24633789 C0.09668561 2.1411175 0.09668561 2.1411175 -13.77563477 11.11352539 C-14.10563477 10.12352539 -14.43563477 9.13352539 -14.77563477 8.11352539 C-13.99317383 7.61981445 -13.21071289 7.12610352 -12.40454102 6.61743164 C-11.39262695 5.97676758 -10.38071289 5.33610352 -9.33813477 4.67602539 C-8.32879883 4.03793945 -7.31946289 3.39985352 -6.27954102 2.74243164 C-2.20242611 0.09008076 -2.20242611 0.09008076 0 0 Z " fill="#0E1465" transform="translate(300.775634765625,234.886474609375)"/>
<path d="M0 0 C-1 3 -1 3 -3.81640625 4.68359375 C-5.0577642 5.28365665 -6.30715626 5.86727447 -7.5625 6.4375 C-8.22491699 6.74244385 -8.88733398 7.0473877 -9.56982422 7.36157227 C-17.95080773 11.06276393 -27.74705421 14.44314874 -37 14 C-35.68 13.67 -34.36 13.34 -33 13 C-33 12.34 -33 11.68 -33 11 C-32.41621582 10.84442627 -31.83243164 10.68885254 -31.23095703 10.52856445 C-16.98841336 6.88825431 -16.98841336 6.88825431 -3.64453125 0.8828125 C-2 0 -2 0 0 0 Z " fill="#202F75" transform="translate(360,223)"/>
<path d="M0 0 C0.33 0 0.66 0 1 0 C1.4552681 7.76232113 -2.07230847 13.57875128 -7.0390625 19.3828125 C-10.14989161 22.5402458 -13.32804933 25.50124519 -17 28 C-17.66 28 -18.32 28 -19 28 C-17.60243441 24.71286869 -16.04355249 23.00511388 -13.25 20.8125 C-6.5052637 15.08375846 -2.72626693 8.33026007 0 0 Z " fill="#12226D" transform="translate(379,196)"/>
<path d="M0 0 C5.40775838 1.93285114 10.19014571 4.90613756 15.1171875 7.81054688 C18.73095112 9.89357477 21.77551192 11.52969566 26 12 C26 12.66 26 13.32 26 14 C23 15 23 15 19.9609375 13.77734375 C18.75944429 13.17626144 17.56438324 12.56220262 16.375 11.9375 C15.75415527 11.61821533 15.13331055 11.29893066 14.49365234 10.9699707 C4.19050627 5.58077652 4.19050627 5.58077652 0 2 C0 1.34 0 0.68 0 0 Z " fill="#1A1F6E" transform="translate(220,276)"/>
<path d="M0 0 C2.00720923 0.28674418 4.0085944 0.61866701 6 1 C6 1.33 6 1.66 6 2 C5.13117188 2.25523437 4.26234375 2.51046875 3.3671875 2.7734375 C-0.09304519 4.03389349 -2.80561413 5.60369711 -5.875 7.625 C-6.84179688 8.25664062 -7.80859375 8.88828125 -8.8046875 9.5390625 C-9.52914063 10.02117187 -10.25359375 10.50328125 -11 11 C-11.33 10.01 -11.66 9.02 -12 8 C-11.21753906 7.50628906 -10.43507813 7.01257813 -9.62890625 6.50390625 C-8.61699219 5.86324219 -7.60507812 5.22257813 -6.5625 4.5625 C-5.55316406 3.92441406 -4.54382813 3.28632813 -3.50390625 2.62890625 C-1.15446165 1.22350458 -1.15446165 1.22350458 0 0 Z " fill="#1F2770" transform="translate(298,235)"/>
<path d="M0 0 C0 0.99 0 1.98 0 3 C-4.95 5.475 -4.95 5.475 -10 8 C-10.99 6.68 -11.98 5.36 -13 4 C-12.154375 3.896875 -11.30875 3.79375 -10.4375 3.6875 C-6.58557299 2.9171146 -3.55924969 1.63725486 0 0 Z " fill="#111968" transform="translate(285,244)"/>
<path d="M0 0 C1.65 0.33 3.3 0.66 5 1 C4.67 2.32 4.34 3.64 4 5 C2.35 5 0.7 5 -1 5 C-1 2 -1 2 0 0 Z " fill="#363379" transform="translate(295,308)"/>
<path d="M0 0 C1.43836751 0.11458693 2.87570966 0.24209116 4.3125 0.375 C5.51326172 0.47941406 5.51326172 0.47941406 6.73828125 0.5859375 C9 1 9 1 12 3 C8.69564916 4.12377697 6.9493138 3.89554742 3.75 2.5625 C3.04359375 2.27503906 2.3371875 1.98757813 1.609375 1.69140625 C1.07828125 1.46324219 0.5471875 1.23507812 0 1 C0 0.67 0 0.34 0 0 Z " fill="#292C76" transform="translate(168,269)"/>
</svg>
